<svg width="42" height="42" viewBox="0 0 42 42" fill="none" xmlns="http://www.w3.org/2000/svg">
<path d="M21 19.3327H29.3368" stroke="#262A37" stroke-width="1.5" stroke-linecap="round" stroke-linejoin="round"/>
<path d="M21 24.3348H29.3368" stroke="#262A37" stroke-width="1.5" stroke-linecap="round" stroke-linejoin="round"/>
<path d="M21 29.3369H29.3368" stroke="#262A37" stroke-width="1.5" stroke-linecap="round" stroke-linejoin="round"/>
<path d="M14.3305 10.9959H32.6715C34.5132 10.9959 36.0062 12.4889 36.0062 14.3306V32.6716C36.0062 34.5133 34.5132 36.0063 32.6715 36.0063H9.32844C7.48672 36.0063 5.99371 34.5133 5.99371 32.6716V32.6716C5.99371 30.8298 7.48672 29.3368 9.32844 29.3368H10.9958C12.8375 29.3368 14.3305 27.8438 14.3305 26.0021V10.1622C14.3305 7.86003 12.4643 5.99377 10.1621 5.99377V5.99377C7.85997 5.99377 5.99371 7.86003 5.99371 10.1622V32.6716" stroke="#262A37" stroke-width="1.5" stroke-linecap="round" stroke-linejoin="round"/>
</svg>
