<svg width="40" height="40" viewBox="0 0 40 40" fill="none" xmlns="http://www.w3.org/2000/svg">
<path d="M31.6667 8.33337H33.3334C35.175 8.33337 36.6667 9.82504 36.6667 11.6667V31.6667C36.6667 33.5084 35.175 35 33.3334 35H6.66671C4.82504 35 3.33337 33.5084 3.33337 31.6667V11.6667C3.33337 9.82504 4.82504 8.33337 6.66671 8.33337H8.33337" stroke="#262A37" stroke-width="1.5" stroke-linecap="round" stroke-linejoin="round"/>
<path fill-rule="evenodd" clip-rule="evenodd" d="M20 10C20 7.23833 17.7617 5 15 5H10C9.08004 5 8.33337 5.74667 8.33337 6.66667V28.3333C8.33337 29.2533 9.08004 30 10 30H15C17.7617 30 20 32.2383 20 35C20 32.2383 22.2384 30 25 30H30C30.92 30 31.6667 29.2533 31.6667 28.3333V6.66667C31.6667 5.74667 30.92 5 30 5H25C22.2384 5 20 7.23833 20 10Z" stroke="#262A37" stroke-width="1.5" stroke-linecap="round" stroke-linejoin="round"/>
<path d="M20.0001 10V35" stroke="#262A37" stroke-width="1.5" stroke-linecap="round" stroke-linejoin="round"/>
</svg>
